<?xml version="1.0" encoding="utf-8"?>
<!-- Generator: Adobe Illustrator 22.1.0, SVG Export Plug-In . SVG Version: 6.00 Build 0)  -->
<svg version="1.1" id="Layer_1" xmlns="http://www.w3.org/2000/svg" xmlns:xlink="http://www.w3.org/1999/xlink" x="0px" y="0px"
	 viewBox="0 0 79.5 36.7" style="enable-background:new 0 0 79.5 36.7;" xml:space="preserve">
<style type="text/css">
	.st0{fill:#76BC21;}
	.st1{fill:#1A1A18;}
</style>
<path class="st0" d="M75.3,12.8c0-1.2,0.9-2.1,2.1-2.1c1.2,0,2.1,0.9,2.1,2.1c0,1.2-0.9,2.1-2.1,2.1C76.2,14.9,75.3,14,75.3,12.8"/>
<path class="st1" d="M12.1,7.1c0,2.4-0.7,4.3-2,5.6c-1.3,1.3-3.1,2-5.5,2H0V0.1h4.9c2.3,0,4,0.6,5.3,1.8C11.5,3.1,12.1,4.8,12.1,7.1
	 M8.1,7.2c0-1.3-0.3-2.3-0.8-3C6.8,3.6,6,3.3,5,3.3H3.8v8.2h0.9c1.2,0,2-0.3,2.6-1C7.8,9.7,8.1,8.7,8.1,7.2"/>
<rect x="24.8" y="0.1" class="st1" width="3.7" height="14.6"/>
<path class="st1" d="M40.5,9.2c0,1.8-0.5,3.2-1.4,4.2c-0.9,1-2.2,1.5-3.9,1.5c-1.6,0-2.9-0.5-3.8-1.5c-1-1-1.4-2.4-1.4-4.1
	c0-1.8,0.5-3.1,1.4-4.1c0.9-1,2.2-1.5,3.9-1.5c1,0,2,0.2,2.8,0.7c0.8,0.5,1.4,1.1,1.8,2C40.3,7.1,40.5,8.1,40.5,9.2 M33.6,9.2
	c0,0.9,0.1,1.6,0.4,2.1c0.2,0.5,0.7,0.7,1.2,0.7c0.6,0,1-0.2,1.2-0.7c0.2-0.5,0.4-1.2,0.4-2.1c0-0.9-0.1-1.6-0.4-2.1
	c-0.2-0.5-0.6-0.7-1.2-0.7c-0.6,0-1,0.2-1.2,0.7C33.7,7.6,33.6,8.3,33.6,9.2"/>
<rect x="41.9" y="3.8" class="st1" width="3.7" height="10.9"/>
<rect x="41.9" y="0.1" class="st1" width="3.7" height="2.4"/>
<path class="st1" d="M53,11.9c0.5,0,1.1-0.1,1.8-0.4v2.7c-0.5,0.2-1,0.4-1.4,0.5c-0.4,0.1-1,0.1-1.6,0.1c-1.2,0-2.1-0.3-2.7-0.9
	c-0.5-0.6-0.8-1.6-0.8-2.8V6.6h-1.3V3.8h1.3V1.1L52,0.4v3.4h2.3v2.8H52v4.2C52,11.6,52.4,11.9,53,11.9"/>
<path class="st1" d="M61.5,11.9c0.5,0,1.1-0.1,1.8-0.4v2.7c-0.5,0.2-1,0.4-1.4,0.5c-0.4,0.1-1,0.1-1.6,0.1c-1.2,0-2.1-0.3-2.7-0.9
	c-0.5-0.6-0.8-1.6-0.8-2.8V6.6h-1.3V3.8h1.3V1l3.7-0.6v3.4h2.3v2.8h-2.3v4.2C60.5,11.6,60.8,11.9,61.5,11.9"/>
<path class="st1" d="M73,4.9c-0.9-0.9-2.1-1.3-3.7-1.3c-1.7,0-3,0.5-3.9,1.5c-0.9,1-1.4,2.4-1.4,4.2c0,1.8,0.5,3.1,1.5,4.1
	c1,1,2.3,1.4,4.1,1.4c0.8,0,1.6-0.1,2.2-0.2c0.6-0.1,1.2-0.3,1.8-0.6l-0.6-2.4c-0.4,0.2-0.8,0.3-1.2,0.4c-0.5,0.1-1.1,0.2-1.8,0.2
	c-0.7,0-1.3-0.2-1.7-0.5c-0.4-0.3-0.6-0.8-0.7-1.4h6.5V8.6C74.4,7,73.9,5.8,73,4.9 M67.9,7.9c0.1-0.6,0.2-1,0.5-1.3
	c0.3-0.3,0.7-0.4,1.1-0.4c0.5,0,0.8,0.2,1.1,0.5C70.9,7,71,7.4,71,7.9H67.9z"/>
<path class="st1" d="M22.1,4.9c-0.9-0.9-2.1-1.3-3.7-1.3c-1.7,0-3,0.5-3.9,1.5c-0.9,1-1.4,2.4-1.4,4.2c0,1.8,0.5,3.1,1.5,4.1
	c1,1,2.3,1.4,4.1,1.4c0.8,0,1.6-0.1,2.2-0.2c0.6-0.1,1.2-0.3,1.8-0.6l-0.6-2.4c-0.4,0.2-0.8,0.3-1.2,0.4c-0.5,0.1-1.1,0.2-1.8,0.2
	c-0.7,0-1.3-0.2-1.7-0.5c-0.4-0.3-0.6-0.8-0.7-1.4h6.5V8.6C23.4,7,23,5.8,22.1,4.9 M16.9,7.9c0-0.6,0.2-1,0.5-1.3
	c0.3-0.3,0.7-0.4,1.1-0.4c0.5,0,0.8,0.2,1.1,0.5c0.3,0.3,0.4,0.7,0.4,1.3H16.9z"/>
<path class="st1" d="M10.4,25.1c0,2.3-0.6,4.1-1.8,5.2c-1.2,1.2-3,1.8-5.3,1.8H0V18.3h3.7c2.2,0,3.9,0.6,5,1.7
	C9.9,21.2,10.4,22.9,10.4,25.1z M9.4,25.1c0-2-0.5-3.5-1.5-4.4c-1-1-2.5-1.5-4.4-1.5H1v12.1h2.3C7.3,31.2,9.4,29.2,9.4,25.1z"/>
<path class="st1" d="M13.2,32.1h-0.9V21.8h0.9V32.1z"/>
<path class="st1" d="M13.2,20.7h-0.9v-1.3h0.9V20.7z"/>
<path class="st1" d="M26.1,32.1h-0.9V21.8h0.9V32.1z"/>
<path class="st1" d="M26.1,20.7h-0.9v-1.3h0.9V20.7z"/>
<path class="st1" d="M23.5,21.8v0.6l-2.1,0.1c0.6,0.7,0.8,1.5,0.8,2.3c0,1-0.3,1.8-1,2.4c-0.7,0.6-1.5,0.9-2.6,0.9
	c-0.5,0-0.8,0-1-0.1c-0.4,0.2-0.7,0.4-0.8,0.7c-0.2,0.3-0.3,0.5-0.3,0.8c0,0.3,0.1,0.6,0.4,0.7c0.2,0.2,0.7,0.2,1.2,0.2h1.8
	c1.1,0,2,0.2,2.5,0.7c0.6,0.4,0.9,1.1,0.9,2c0,1.1-0.4,1.9-1.3,2.5c-0.9,0.6-2.1,0.9-3.7,0.9c-1.3,0-2.3-0.2-3-0.7
	c-0.7-0.5-1.1-1.2-1.1-2.1c0-0.7,0.2-1.3,0.7-1.7c0.4-0.5,1-0.8,1.8-1c-0.3-0.1-0.6-0.3-0.7-0.6c-0.2-0.2-0.3-0.5-0.3-0.8
	c0-0.7,0.4-1.3,1.3-1.8c-0.6-0.2-1.1-0.6-1.4-1.2c-0.3-0.5-0.5-1.1-0.5-1.8c0-1,0.3-1.8,1-2.5c0.6-0.6,1.5-0.9,2.6-0.9
	c0.7,0,1.2,0.1,1.6,0.2H23.5z M15.2,33.8c0,1.4,1,2.1,3.1,2.1c2.7,0,4-0.9,4-2.6c0-0.6-0.2-1.1-0.6-1.3c-0.4-0.3-1.1-0.4-2-0.4H18
	C16.2,31.6,15.2,32.3,15.2,33.8z M16,25c0,0.8,0.2,1.4,0.7,1.8c0.5,0.4,1.1,0.7,1.9,0.7c0.9,0,1.5-0.2,2-0.6
	c0.5-0.4,0.7-1.1,0.7-1.9c0-0.9-0.2-1.5-0.7-2c-0.5-0.4-1.1-0.7-2-0.7c-0.8,0-1.5,0.2-1.9,0.7C16.2,23.5,16,24.2,16,25z"/>
<path class="st1" d="M41.1,32.1l-0.2-1.6h-0.1c-0.5,0.7-1,1.1-1.6,1.4c-0.5,0.3-1.2,0.4-1.9,0.4c-1,0-1.8-0.3-2.3-0.8
	c-0.6-0.5-0.8-1.2-0.8-2.1c0-1,0.4-1.8,1.2-2.3c0.8-0.6,2-0.8,3.6-0.9l1.9-0.1v-0.7c0-1-0.2-1.7-0.6-2.2c-0.4-0.5-1-0.7-1.9-0.7
	c-0.9,0-1.9,0.3-2.9,0.8l-0.3-0.8c1.1-0.5,2.2-0.8,3.3-0.8c1.1,0,2,0.3,2.5,0.9c0.6,0.6,0.8,1.5,0.8,2.7v6.8H41.1z M37.3,31.4
	c1.1,0,2-0.3,2.6-0.9s0.9-1.5,0.9-2.6v-1L39,26.9c-1.4,0.1-2.5,0.3-3.1,0.7c-0.6,0.4-0.9,1-0.9,1.8c0,0.6,0.2,1.1,0.6,1.5
	C36,31.2,36.6,31.4,37.3,31.4z"/>
<path class="st1" d="M45.3,32.1h-0.9V17.4h0.9V32.1z"/>
<path class="st1" d="M31.6,31.4c0.6,0,1.1-0.1,1.5-0.2V32c-0.5,0.2-1,0.2-1.6,0.2c-0.9,0-1.6-0.2-2-0.7c-0.4-0.5-0.6-1.2-0.6-2.3
	v-6.6h-1.5v-0.8h1.5v-2.3l1-0.2v2.5h3v0.8h-3v6.5c0,0.8,0.1,1.4,0.4,1.7C30.6,31.2,31,31.4,31.6,31.4z"/>
</svg>
